# xmcd
#
# Track frame offsets: 
#        182
#        43827
#        72750
#        93050
#        125435
#        147947
#        162622
#        193700
#        213415
#        247760
#        271165
#        311525
#
# Disc length: 4652 seconds
#
# Revision: 3
# Processed by: cddbd v1.5.2PL0 Copyright (c) Steve Scherf et al.
# Submitted via: ExactAudioCopyFreeDBPlugin 1.0
#
DISCID=a7122a0c
DTITLE=Various Artist - Smooth Grooves:  At the Club [Rhino]
DYEAR=2002
DGENRE=SMB
TTITLE0=Strafe - Set it Off (original 12'' version)
TTITLE1=Dynasty - I've Just Begun (To Love You)
TTITLE2=Ray Parker Jr. and Raydio - For Those Who Like to Groove
TTITLE3=Kano - I'm Ready (12'' version)
TTITLE4=Bill Summers and Summers Heat - Call it What You Want
TTITLE5=People's Choice - Do it Any Way You Wanna Do It
TTITLE6=Kraftwerk - Trans-Europe Express
TTITLE7=Marvin Gaye - Sanctified Lady (single version)
TTITLE8=Oliver Cheatham - Get Down Saturday Night (special extended ve
TTITLE8=rsion)
TTITLE9=Ashford and Simpson - It Seems to Hang On
TTITLE10=Vaughn Mason and Crew - Roller Skate
TTITLE11=Sweat Band - We Do it All Day Long
EXTD=YEAR: 2002 ID3G: 3
EXTT0=
EXTT1=
EXTT2=
EXTT3=
EXTT4=
EXTT5=
EXTT6=
EXTT7=
EXTT8=
EXTT9=
EXTT10=
EXTT11=
PLAYORDER=
